<svg xmlns="http://www.w3.org/2000/svg" viewBox="0 0 28 28" id="User">
  <path d="M14 0A14 14 0 0 0 0 14a14 14 0 0 0 14 14 14 14 0 0 0 14-14A14 14 0 0 0 14 0zm-2.979 8h5.715c1.708 0 3.263 1.579 3.262 3.313v4.271c1.108.589 1.873 1.741 1.873 3.08 0 1.93-1.57 3.5-3.5 3.5A3.502 3.502 0 0 1 15.141 20h-4.12C9.271 20 8 18.75 8 17.027v-5.715C8 9.486 9.355 8 11.021 8zm0 1C9.772 9 9 10.2 9 11.313v5.714c0 .401.104.756.283 1.055a4.983 4.983 0 0 1 4.485-2.912 2.49 2.49 0 0 1-2.395-2.482 2.493 2.493 0 0 1 2.49-2.49 2.496 2.496 0 0 1 2.492 2.491 2.49 2.49 0 0 1-2.418 2.483 4.983 4.983 0 0 1 2.385.67 3.47 3.47 0 0 1 2.051-.678c.214 0 .423.026.627.063v-3.915C19 10.124 17.9 9 16.736 9h-5.715zm2.842 2.197a1.492 1.492 0 1 0 .003 2.983 1.492 1.492 0 0 0-.003-2.983zm-.031 4.967a3.99 3.99 0 0 0-3.758 2.627c.278.13.594.209.947.209h3.885c-.01-.112-.035-.22-.035-.336 0-.789.273-1.51.715-2.096a4.004 4.004 0 0 0-1.754-.404zm4.541 0a2.503 2.503 0 0 0-2.5 2.5c0 1.378 1.122 2.5 2.5 2.5s2.5-1.122 2.5-2.5c0-1.379-1.122-2.5-2.5-2.5zm-.52 1h1v.996h.997v1h-.996v.996h-1v-.996h-.999v-1h.999v-.996z" fill="#703eff" class="color000000 svgShape"></path>
</svg>
